<svg width="28" height="16" viewBox="0 0 28 16" fill="none" xmlns="http://www.w3.org/2000/svg">
<path d="M27.5435 0.230167C27.8281 0.509158 27.8539 0.945733 27.6211 1.25338L27.5435 1.34151L21.1201 7.63837L27.5435 13.9352C27.8281 14.2142 27.8539 14.6508 27.6211 14.9584L27.5435 15.0466C27.2589 15.3256 26.8136 15.3509 26.4997 15.1227L26.4098 15.0466L19.4199 8.19404C19.1353 7.91505 19.1094 7.47848 19.3423 7.17083L19.4199 7.0827L26.4098 0.230167C26.7229 -0.0767225 27.2304 -0.0767225 27.5435 0.230167Z" fill="white" fill-opacity="0.3"/>
<path d="M17.9512 0.230167C18.2358 0.509158 18.2616 0.945733 18.0288 1.25338L17.9512 1.34151L11.5278 7.63837L17.9512 13.9352C18.2358 14.2142 18.2616 14.6508 18.0288 14.9584L17.9512 15.0466C17.6666 15.3256 17.2213 15.3509 16.9075 15.1227L16.8175 15.0466L9.82758 8.19404C9.543 7.91505 9.51713 7.47848 9.74997 7.17083L9.82758 7.0827L16.8175 0.230167C17.1306 -0.0767225 17.6381 -0.0767225 17.9512 0.230167Z" fill="white" fill-opacity="0.6"/>
<path d="M8.35841 0.230167C8.643 0.509158 8.66887 0.945733 8.43602 1.25338L8.35841 1.34151L1.935 7.63837L8.35841 13.9352C8.643 14.2142 8.66887 14.6508 8.43602 14.9584L8.35841 15.0466C8.07382 15.3256 7.62849 15.3509 7.31468 15.1227L7.22477 15.0466L0.23481 8.19404C-0.0497759 7.91505 -0.0756474 7.47848 0.157196 7.17083L0.23481 7.0827L7.22477 0.230167C7.53782 -0.0767225 8.04536 -0.0767225 8.35841 0.230167Z" fill="white"/>
</svg>
